<svg xmlns="http://www.w3.org/2000/svg" width="512" height="512" viewBox="0 0 512 512" version="1.1">
	<path d="M 132 188.429 L 132 280.858 126.750 281.888 C 123.862 282.454, 117.450 283.724, 112.500 284.709 L 103.500 286.500 117.801 286.778 L 132.103 287.056 131.801 292.278 L 131.500 297.500 96 298 L 60.500 298.500 49.734 303.205 C 30.565 311.581, 28.064 311, 83.277 311 L 132 311 132 317.500 L 132 324 74.174 324 L 16.349 324 14.287 326.250 C 13.153 327.488, 11.266 330.413, 10.093 332.750 L 7.959 337 69.980 337 L 132 337 132 340.500 L 132 344 256 344 L 380 344 380 340.500 L 380 337 442.020 337 L 504.041 337 501.907 332.750 C 500.734 330.413, 498.847 327.488, 497.713 326.250 L 495.651 324 437.826 324 L 380 324 380 317.500 L 380 311 428.723 311 C 483.936 311, 481.435 311.581, 462.266 303.205 L 451.500 298.500 415.750 298.214 L 380 297.928 380 292.491 L 380 287.055 394.250 286.777 L 408.500 286.500 399.500 284.709 C 394.550 283.724, 388.137 282.454, 385.250 281.888 L 380 280.858 380 188.429 L 380 96 256 96 L 132 96 132 188.429 M 200.978 158.250 C 200.958 195.589, 200.819 198.802, 199.062 202.672 C 196.576 208.147, 193.031 210.385, 186.844 210.385 C 182.686 210.385, 181.448 209.909, 178.857 207.319 C 176.219 204.680, 175.642 203.121, 174.719 196.127 L 173.646 188 167.323 188 L 161 188 161 194.318 C 161 212.354, 169.199 220.969, 186.384 220.990 C 190.720 220.996, 196.120 220.450, 198.384 219.778 C 203.796 218.170, 211.170 210.796, 212.778 205.384 C 213.655 202.429, 214 189.527, 214 159.634 L 214 118 207.500 118 L 201 118 200.978 158.250 M 227.510 120.250 C 227.811 121.487, 233.365 144.325, 239.852 171 L 251.647 219.500 260.035 219.500 L 268.422 219.500 278.017 178.500 C 283.294 155.950, 287.828 136.889, 288.092 136.143 C 288.356 135.397, 292.093 150.922, 296.398 170.643 C 300.703 190.364, 304.898 209.537, 305.721 213.250 L 307.217 220 315.479 220 L 323.740 220 326.443 209.750 C 327.930 204.113, 333.972 181.275, 339.870 159 L 350.594 118.500 343.635 118.203 C 339.808 118.040, 336.412 118.338, 336.088 118.866 C 335.765 119.395, 331.229 138.091, 326.009 160.414 C 320.789 182.736, 316.262 201, 315.949 201 C 315.636 201, 311.665 183.113, 307.125 161.250 C 302.584 139.387, 298.643 120.713, 298.367 119.750 C 297.938 118.253, 296.586 118, 289.015 118 L 280.166 118 279.141 122.750 C 278.578 125.362, 274.250 144.128, 269.524 164.451 C 262.127 196.260, 260 204.590, 260 201.752 C 260 201.151, 244.853 131.165, 242.902 122.750 L 241.801 118 234.381 118 C 227.191 118, 226.979 118.070, 227.510 120.250 M 161 285.908 C 155.852 287.127, 153 290.506, 153 295.387 C 153 299.981, 155.159 302.754, 161.725 306.594 C 169.020 310.860, 170.936 313.651, 169.195 317.472 C 166.836 322.648, 158.473 321.616, 157.352 316.011 C 156.885 313.677, 156.216 313, 154.375 313 C 150.718 313, 151.098 318.252, 155.040 322.194 C 157.887 325.041, 158.462 325.207, 164.079 324.801 C 171.444 324.268, 174.010 322.110, 174.708 315.862 C 175.304 310.523, 173.094 307.277, 166.177 303.330 C 159.612 299.584, 158 298.024, 158 295.416 C 158 292.073, 160.726 289.841, 164.375 290.196 C 166.804 290.432, 167.819 291.224, 168.930 293.750 C 170.333 296.938, 173.210 298.087, 174.512 295.980 C 175.464 294.440, 173.070 288.102, 171.170 287.133 C 168.617 285.831, 163.783 285.249, 161 285.908 M 344.094 286.282 C 342.220 286.952, 339.810 288.683, 338.738 290.130 C 336.385 293.304, 335.425 302.805, 336.470 312.566 C 337.066 318.134, 337.703 319.857, 340.021 322.175 C 342.343 324.497, 343.706 324.999, 347.673 324.994 C 350.328 324.991, 354.188 324.520, 356.250 323.947 L 360 322.906 360 313.453 L 360 304 354 304 C 348.667 304, 348 304.222, 348 306 C 348 307.619, 348.667 308, 351.500 308 L 355 308 355 313.883 C 355 320.237, 354.285 320.953, 347.905 320.986 C 342.738 321.014, 341.500 318.022, 341.500 305.505 C 341.500 295.812, 341.769 293.922, 343.405 292.110 C 346.806 288.343, 355 290.082, 355 294.571 C 355 295.429, 356 296, 357.500 296 C 359.512 296, 360 295.503, 360 293.455 C 360 290.526, 355.943 286.006, 353.295 285.986 C 352.308 285.979, 350.600 285.768, 349.500 285.519 C 348.400 285.269, 345.967 285.613, 344.094 286.282 M 178.667 286.667 C 178.300 287.033, 178 287.933, 178 288.667 C 178 289.600, 179.500 290, 183 290 L 188 290 188 307 L 188 324 190.476 324 L 192.952 324 193.226 307.250 L 193.500 290.500 198.250 290.195 C 202.184 289.943, 203 289.556, 203 287.945 C 203 286.128, 202.222 286, 191.167 286 C 184.658 286, 179.033 286.300, 178.667 286.667 M 208.667 286.667 C 208.300 287.033, 208 295.583, 208 305.667 L 208 324 210.500 324 L 213 324 213 305 C 213 287.242, 212.880 286, 211.167 286 C 210.158 286, 209.033 286.300, 208.667 286.667 M 221.667 286.667 C 221.300 287.033, 221 295.583, 221 305.667 L 221 324 223.500 324 C 225.971 324, 226 323.900, 226 315.500 L 226 307 233 307 C 239.279 307, 240 306.799, 240 305.046 C 240 303.329, 239.180 303.055, 233.250 302.796 L 226.500 302.500 226.500 296.500 L 226.500 290.500 233.250 290.204 C 239.180 289.945, 240 289.671, 240 287.954 C 240 286.163, 239.264 286, 231.167 286 C 226.308 286, 222.033 286.300, 221.667 286.667 M 241 288 C 241 289.733, 241.667 290, 246 290 L 251 290 251 307 L 251 324 253.476 324 L 255.952 324 256.226 307.250 L 256.500 290.500 261.250 290.195 C 265.184 289.943, 266 289.556, 266 287.945 C 266 286.122, 265.216 286, 253.500 286 C 241.667 286, 241 286.107, 241 288 M 270.667 286.667 C 269.706 287.627, 269.928 310.678, 270.950 315.971 C 272.116 322.018, 275.636 325, 281.605 325 C 287.125 325, 291.225 322.997, 292.805 319.528 C 293.567 317.856, 294 311.304, 294 301.453 C 294 286.667, 293.914 286, 292 286 C 290.116 286, 289.997 286.681, 289.956 297.750 C 289.887 316.503, 288.341 321, 281.964 321 C 280.504 321, 278.453 320.054, 277.405 318.897 C 275.741 317.060, 275.457 314.844, 275.160 301.397 C 274.855 287.551, 274.645 286, 273.077 286 C 272.118 286, 271.033 286.300, 270.667 286.667 M 303 305 C 303 323.252, 303.078 324, 304.975 324 C 306.845 324, 306.964 323.173, 307.225 308.325 L 307.500 292.649 314.500 308.303 L 321.500 323.956 325.272 323.978 L 329.044 324 328.772 305.250 C 328.511 287.257, 328.419 286.500, 326.500 286.500 C 324.609 286.500, 324.473 287.333, 324 301.816 L 323.500 317.132 317.079 302.816 C 313.548 294.942, 310.230 287.938, 309.707 287.250 C 309.183 286.563, 307.460 286, 305.878 286 L 303 286 303 305 M 9.084 352.811 C 9.623 354.357, 11.432 357.282, 13.105 359.311 L 16.146 363 256 363 L 495.854 363 498.895 359.311 C 500.568 357.282, 502.377 354.357, 502.916 352.811 L 503.896 350 256 350 L 8.104 350 9.084 352.811 M 132 370 C 132 371.989, 132.667 372, 256 372 C 379.333 372, 380 371.989, 380 370 C 380 368.011, 379.333 368, 256 368 C 132.667 368, 132 368.011, 132 370 M 35 376.486 C 35 377.328, 47.059 383.100, 56.168 386.618 L 64.925 390 256 390 L 447.075 390 455.832 386.618 C 464.941 383.100, 477 377.328, 477 376.486 C 477 376.219, 377.550 376, 256 376 C 134.450 376, 35 376.219, 35 376.486 M 132 396 C 132 397.989, 132.667 398, 256 398 C 379.333 398, 380 397.989, 380 396 C 380 394.011, 379.333 394, 256 394 C 132.667 394, 132 394.011, 132 396 M 123 404.554 C 133.644 406.708, 164.394 410.921, 181 412.499 C 238.794 417.994, 308.615 416.452, 364.500 408.448 C 402.653 402.983, 407.976 403.238, 256 403.238 C 138.068 403.238, 117.505 403.442, 123 404.554" stroke="none" fill="black" fill-rule="evenodd"/>
</svg>